<svg width="42" height="42" viewBox="0 0 42 42" fill="none" xmlns="http://www.w3.org/2000/svg">
<g id="Group 427322539">
<rect id="Rectangle 11727" width="42" height="42" rx="21" fill="white" fill-opacity="0.1"/>
<path id="Vector" d="M22.6434 20.999L27.6552 15.9981C27.8747 15.7786 27.998 15.4809 27.998 15.1705C27.998 14.86 27.8747 14.5623 27.6552 14.3428C27.4358 14.1233 27.1381 14 26.8277 14C26.5173 14 26.2196 14.1233 26.0002 14.3428L21 19.3554L15.9998 14.3428C15.7804 14.1233 15.4827 14 15.1723 14C14.8619 14 14.5642 14.1233 14.3448 14.3428C14.1253 14.5623 14.002 14.86 14.002 15.1705C14.002 15.4809 14.1253 15.7786 14.3448 15.9981L19.3566 20.999L14.3448 25.9999C14.2355 26.1083 14.1488 26.2372 14.0896 26.3792C14.0305 26.5213 14 26.6736 14 26.8275C14 26.9814 14.0305 27.1338 14.0896 27.2758C14.1488 27.4179 14.2355 27.5468 14.3448 27.6552C14.4531 27.7644 14.582 27.8512 14.7241 27.9103C14.8661 27.9695 15.0184 28 15.1723 28C15.3262 28 15.4785 27.9695 15.6205 27.9103C15.7626 27.8512 15.8915 27.7644 15.9998 27.6552L21 22.6427L26.0002 27.6552C26.1085 27.7644 26.2374 27.8512 26.3795 27.9103C26.5215 27.9695 26.6738 28 26.8277 28C26.9816 28 27.1339 27.9695 27.2759 27.9103C27.418 27.8512 27.5469 27.7644 27.6552 27.6552C27.7645 27.5468 27.8512 27.4179 27.9104 27.2758C27.9695 27.1338 28 26.9814 28 26.8275C28 26.6736 27.9695 26.5213 27.9104 26.3792C27.8512 26.2372 27.7645 26.1083 27.6552 25.9999L22.6434 20.999Z" fill="white"/>
</g>
</svg>
