<svg width="35" height="35" viewBox="0 0 35 35" fill="none" xmlns="http://www.w3.org/2000/svg">
<g id="Group 427322523">
<path id="Ellipse 844" d="M17.5 35C27.165 35 35 27.165 35 17.5C35 7.83502 27.165 0 17.5 0C7.83502 0 0 7.83502 0 17.5C0 27.165 7.83502 35 17.5 35Z" fill="#2A3342"/>
<path id="Path 20953" d="M22.1531 17.8012V14.8431H19.0191V13.3212C19.0191 11.8158 19.7071 11.0631 21.0831 11.0631C21.6165 11.0719 22.1435 11.1802 22.6371 11.3822V8.26416C21.9575 8.07467 21.2534 7.98766 20.5481 8.00611C19.0814 7.93846 17.6445 8.43483 16.5321 9.39319C16.023 9.86269 15.6224 10.4376 15.3583 11.0779C15.0942 11.7181 14.973 12.4082 15.0031 13.1001V14.8431H12.7031V17.8012H15.0031L14.9861 27.5111C15.0001 27.5291 18.9521 27.5112 19.0001 27.5302L19.0181 17.8012H22.1531Z" fill="white"/>
</g>
</svg>
