<svg width="17" height="16" viewBox="0 0 17 16" fill="none" xmlns="http://www.w3.org/2000/svg">
<path id="Path 21930" d="M9.877 15.4642L16.593 8.69123C16.7025 8.59081 16.7899 8.46872 16.8497 8.33273C16.9095 8.19673 16.9404 8.04979 16.9404 7.90123C16.9404 7.75267 16.9095 7.60572 16.8497 7.46973C16.7899 7.33373 16.7025 7.21165 16.593 7.11123L9.877 0.338228C9.67716 0.142583 9.41455 0.0239255 9.13565 0.00324558C8.85674 -0.0174343 8.57951 0.0611961 8.353 0.225228C8.21694 0.316532 8.10363 0.437809 8.02176 0.579743C7.93989 0.721676 7.89165 0.880488 7.88073 1.04398C7.86982 1.20747 7.89653 1.37128 7.95881 1.52284C8.02109 1.67439 8.11728 1.80965 8.24 1.91823L13.094 6.77223H1.129C0.82957 6.77223 0.542405 6.89117 0.330676 7.1029C0.118948 7.31463 0 7.6018 0 7.90123C0 8.20066 0.118948 8.48782 0.330676 8.69955C0.542405 8.91128 0.82957 9.03023 1.129 9.03023H13.094L8.24 13.8842C8.11728 13.9928 8.02109 14.1281 7.95881 14.2796C7.89653 14.4312 7.86982 14.595 7.88073 14.7585C7.89165 14.922 7.93989 15.0808 8.02176 15.2227C8.10363 15.3646 8.21694 15.4859 8.353 15.5772C8.57951 15.7413 8.85674 15.8199 9.13565 15.7992C9.41455 15.7785 9.67716 15.6599 9.877 15.4642Z" fill="white"/>
</svg>
