<svg width="150" height="150" viewBox="0 0 150 150" fill="none" xmlns="http://www.w3.org/2000/svg">
<mask id="mask0_924_353" style="mask-type:alpha" maskUnits="userSpaceOnUse" x="0" y="0" width="150" height="150">
<path d="M150 10C150 4.47715 145.523 0 140 0H10C4.47714 0 0 4.47715 0 10V140C0 145.523 4.47714 150 10 150H140C145.523 150 150 145.523 150 140V10Z" fill="#E7F5E6"/>
</mask>
<g mask="url(#mask0_924_353)">
<g filter="url(#filter0_f_924_353)">
<ellipse cx="71.4286" cy="70.2381" rx="71.4286" ry="70.2381" transform="matrix(-1 0 0 1 122.619 43.4524)" fill="#37AC8E" fill-opacity="0.5"/>
</g>
<g filter="url(#filter1_f_924_353)">
<ellipse cx="56.5476" cy="70.8333" rx="56.5476" ry="70.8333" transform="matrix(-1 0 0 1 160.119 -12.5)" fill="#37AC8E" fill-opacity="0.5"/>
</g>
<g filter="url(#filter2_f_924_353)">
<ellipse cx="86.7326" cy="123.796" rx="86.7326" ry="123.796" transform="matrix(-1 0 0 1 121.085 -145.833)" fill="#37AC8E" fill-opacity="0.2"/>
</g>
<g filter="url(#filter3_f_924_353)">
<ellipse cx="86.7326" cy="123.796" rx="86.7326" ry="123.796" transform="matrix(-1 0 0 1 203.331 39.4934)" fill="#DDEEE5"/>
</g>
</g>
<path d="M76.1424 108.821C95.847 108.821 111.821 92.8475 111.821 73.1428C111.821 53.4382 95.847 37.4644 76.1424 37.4644C56.4377 37.4644 40.4639 53.4382 40.4639 73.1428C40.4639 92.8475 56.4377 108.821 76.1424 108.821Z" fill="#F0FAF9"/>
<path d="M76.1427 123.285C103.836 123.285 126.285 100.836 126.285 73.1427C126.285 45.4497 103.836 23 76.1427 23C48.4497 23 26 45.4497 26 73.1427C26 100.836 48.4497 123.285 76.1427 123.285Z" fill="url(#paint0_linear_924_353)"/>
<path d="M126.286 41.3214C130.546 41.3214 134 37.8676 134 33.6071C134 29.3466 130.546 25.8928 126.286 25.8928C122.025 25.8928 118.571 29.3466 118.571 33.6071C118.571 37.8676 122.025 41.3214 126.286 41.3214Z" fill="url(#paint1_linear_924_353)"/>
<path fill-rule="evenodd" clip-rule="evenodd" d="M73.65 60.3454L68.9404 55.6362C68.512 55.2078 67.8175 55.2078 67.3891 55.6362C66.9607 56.0646 66.9607 56.7592 67.3891 57.1876L70.226 60.0242H64.3977C64.2658 60.0505 64.0459 60.0521 63.7711 60.054C63.0065 60.0594 61.8174 60.0677 60.9221 60.6225C59.531 61.4844 58.3145 63.0907 58.3145 65.5243C58.3145 66.9102 58.5911 68.0075 59.1268 68.8431C59.673 69.6952 60.4254 70.1765 61.1837 70.4293C61.92 70.6747 62.6588 70.705 63.2311 70.6877C63.5209 70.6789 63.7846 70.657 63.9908 70.6394C64.2222 70.6195 64.3326 70.6102 64.3977 70.6102C65.0035 70.6102 65.4947 70.1191 65.4947 69.5133C65.4947 68.9074 65.0035 68.4163 64.3977 68.4163C64.2315 68.4163 64.026 68.4341 63.857 68.4488L63.857 68.4488L63.8034 68.4534C63.6006 68.4708 63.389 68.4879 63.1647 68.4947C62.7085 68.5085 62.2631 68.4765 61.8775 68.3479C61.5139 68.2267 61.2067 68.0225 60.9738 67.6591C60.7304 67.2793 60.5084 66.6315 60.5084 65.5243C60.5084 63.9688 61.1659 62.8688 62.1391 62.448C62.7939 62.1649 63.7824 62.1985 64.2267 62.2136C64.2997 62.2161 64.358 62.2181 64.3977 62.2181H70.226L67.3891 65.5533C66.9607 65.9817 66.9607 66.6763 67.3891 67.1047C67.8175 67.533 68.512 67.533 68.9404 67.1047L73.65 61.8968C74.0784 61.4684 74.0784 60.7738 73.65 60.3454ZM82.6382 91.0387C83.036 91.0387 83.4175 90.8807 83.6988 90.5994L84.0169 90.2814C84.2982 90.0001 84.4562 89.6185 84.4562 89.2207V71.3341C84.4562 70.9362 84.2982 70.5547 84.0169 70.2734L83.6988 69.9554C83.4175 69.6741 83.036 69.516 82.6382 69.516H69.5204C69.1225 69.516 68.741 69.6741 68.4597 69.9554L68.1417 70.2734C67.8604 70.5547 67.7023 70.9362 67.7023 71.3341V89.2207C67.7023 89.6185 67.8604 90.0001 68.1417 90.2814L68.4597 90.5994C68.741 90.8807 69.1225 91.0387 69.5204 91.0387H82.6382ZM71.5958 88.6453C70.7673 88.6453 70.0958 87.9738 70.0958 87.1453V73.4094C70.0958 72.581 70.7673 71.9094 71.5958 71.9094H80.5628C81.3912 71.9094 82.0628 72.581 82.0628 73.4094V87.1453C82.0628 87.9738 81.3912 88.6453 80.5628 88.6453H71.5958ZM78.4731 57.534C78.4729 57.534 78.4727 57.5338 78.4727 57.5336C78.4727 57.5334 78.4726 57.5333 78.4724 57.5332C78.4723 57.5331 78.4721 57.5331 78.4719 57.5333L77.4512 58.554C77.339 58.6662 77.276 58.8184 77.276 58.9771V65.8885C77.276 66.5494 77.8118 67.0852 78.4727 67.0852C79.1336 67.0852 79.6694 66.5494 79.6694 65.8885V61.4244C79.6694 60.596 80.341 59.9244 81.1694 59.9244H90.1364C90.9648 59.9244 91.6364 60.596 91.6364 61.4244V75.1603C91.6364 75.9888 90.9648 76.6603 90.1364 76.6603H88.0463C87.3854 76.6603 86.8496 77.1961 86.8496 77.8571C86.8496 78.518 87.3854 79.0538 88.0463 79.0538H92.2118C92.6096 79.0538 92.9912 78.8957 93.2725 78.6144L93.5905 78.2964C93.8718 78.0151 94.0298 77.6336 94.0298 77.2357V59.3521C94.0298 58.9542 93.8718 58.5727 93.5905 58.2914L93.2725 57.9734C92.9912 57.6921 92.6096 57.534 92.2118 57.534H78.4731ZM78.4727 74.2669C79.1336 74.2669 79.6694 74.8027 79.6694 75.4636C79.6694 76.1246 79.1336 76.6603 78.4727 76.6603H73.6859C73.0249 76.6603 72.4892 76.1246 72.4892 75.4636C72.4892 74.8027 73.0249 74.2669 73.6859 74.2669H78.4727ZM73.6859 79.0538C73.0249 79.0538 72.4892 79.5895 72.4892 80.2505C72.4892 80.9114 73.0249 81.4472 73.6859 81.4472H78.4727C79.1336 81.4472 79.6694 80.9114 79.6694 80.2505C79.6694 79.5895 79.1336 79.0538 78.4727 79.0538H73.6859ZM78.4727 83.8406C79.1336 83.8406 79.6694 84.3764 79.6694 85.0373C79.6694 85.6982 79.1336 86.234 78.4727 86.234H73.6859C73.0249 86.234 72.4892 85.6982 72.4892 85.0373C72.4892 84.3764 73.0249 83.8406 73.6859 83.8406H78.4727ZM83.2595 62.2999C82.5986 62.2999 82.0628 62.8357 82.0628 63.4966C82.0628 64.1575 82.5986 64.6933 83.2595 64.6933H88.0463C88.7072 64.6933 89.243 64.1575 89.243 63.4966C89.243 62.8357 88.7072 62.2999 88.0463 62.2999H83.2595ZM88.0463 71.8735C88.7072 71.8735 89.243 72.4093 89.243 73.0702C89.243 73.7312 88.7072 74.2669 88.0463 74.2669C87.3854 74.2669 86.8496 73.7312 86.8496 73.0702C86.8496 72.4093 87.3854 71.8735 88.0463 71.8735ZM84.2498 67.1121C84.2498 67.1188 84.2524 67.1253 84.2572 67.1301L86.1679 69.0408C86.4492 69.3221 86.8308 69.4801 87.2286 69.4801H88.0463C88.7072 69.4801 89.243 68.9443 89.243 68.2834C89.243 67.6225 88.7072 67.0867 88.0463 67.0867H84.2752C84.2611 67.0867 84.2498 67.0981 84.2498 67.1121Z" fill="url(#paint2_linear_924_353)"/>
<defs>
<filter id="filter0_f_924_353" x="-128.238" y="-64.5476" width="358.857" height="356.476" filterUnits="userSpaceOnUse" color-interpolation-filters="sRGB">
<feFlood flood-opacity="0" result="BackgroundImageFix"/>
<feBlend mode="normal" in="SourceGraphic" in2="BackgroundImageFix" result="shape"/>
<feGaussianBlur stdDeviation="54" result="effect1_foregroundBlur_924_353"/>
</filter>
<filter id="filter1_f_924_353" x="-60.9766" y="-120.5" width="329.096" height="357.667" filterUnits="userSpaceOnUse" color-interpolation-filters="sRGB">
<feFlood flood-opacity="0" result="BackgroundImageFix"/>
<feBlend mode="normal" in="SourceGraphic" in2="BackgroundImageFix" result="shape"/>
<feGaussianBlur stdDeviation="54" result="effect1_foregroundBlur_924_353"/>
</filter>
<filter id="filter2_f_924_353" x="-180.96" y="-274.413" width="430.624" height="504.752" filterUnits="userSpaceOnUse" color-interpolation-filters="sRGB">
<feFlood flood-opacity="0" result="BackgroundImageFix"/>
<feBlend mode="normal" in="SourceGraphic" in2="BackgroundImageFix" result="shape"/>
<feGaussianBlur stdDeviation="64.2899" result="effect1_foregroundBlur_924_353"/>
</filter>
<filter id="filter3_f_924_353" x="-98.7135" y="-89.0863" width="430.624" height="504.752" filterUnits="userSpaceOnUse" color-interpolation-filters="sRGB">
<feFlood flood-opacity="0" result="BackgroundImageFix"/>
<feBlend mode="normal" in="SourceGraphic" in2="BackgroundImageFix" result="shape"/>
<feGaussianBlur stdDeviation="64.2899" result="effect1_foregroundBlur_924_353"/>
</filter>
<linearGradient id="paint0_linear_924_353" x1="76.1427" y1="23" x2="76.1427" y2="123.285" gradientUnits="userSpaceOnUse">
<stop stop-color="#F0FAF9"/>
<stop offset="1" stop-color="#F0FAF9" stop-opacity="0"/>
</linearGradient>
<linearGradient id="paint1_linear_924_353" x1="126.286" y1="25.8928" x2="126.286" y2="41.3214" gradientUnits="userSpaceOnUse">
<stop stop-color="#F0FAF9"/>
<stop offset="1" stop-color="#F0FAF9" stop-opacity="0"/>
</linearGradient>
<linearGradient id="paint2_linear_924_353" x1="62.1294" y1="82.156" x2="86.4735" y2="69.6054" gradientUnits="userSpaceOnUse">
<stop stop-color="#212121"/>
<stop offset="1" stop-color="#05B88A"/>
</linearGradient>
</defs>
</svg>
