<svg width="35" height="35" viewBox="0 0 35 35" fill="none" xmlns="http://www.w3.org/2000/svg">
<g id="Group 427322521">
<path id="Ellipse 847" d="M17.5 35C27.165 35 35 27.165 35 17.5C35 7.83502 27.165 0 17.5 0C7.83502 0 0 7.83502 0 17.5C0 27.165 7.83502 35 17.5 35Z" fill="#2A3342"/>
<path id="Path 20957" d="M12.8261 19.0599C12.8791 19.088 12.9382 19.1031 12.9983 19.1039C13.0584 19.1046 13.1178 19.091 13.1715 19.0642C13.2253 19.0374 13.2718 18.9982 13.3074 18.9498C13.343 18.9014 13.3666 18.8453 13.3761 18.786C13.4261 18.593 13.5461 18.1069 13.6001 17.9039C13.643 17.7985 13.6508 17.682 13.6223 17.5718C13.5939 17.4616 13.5307 17.3635 13.4421 17.292C12.9428 16.6882 12.6849 15.9208 12.7181 15.1379C12.7096 14.4324 12.8447 13.7326 13.1152 13.0809C13.3858 12.4293 13.786 11.8395 14.2918 11.3475C14.7975 10.8556 15.3981 10.4717 16.0569 10.2192C16.7157 9.96676 17.4191 9.8509 18.1241 9.87891C21.0721 9.87891 22.6931 11.6789 22.6931 14.0869C22.6931 17.2529 21.2932 19.924 19.2122 19.924C18.9466 19.9372 18.6815 19.888 18.4384 19.7803C18.1952 19.6725 17.9807 19.5093 17.8121 19.3036C17.6436 19.0979 17.5257 18.8554 17.4679 18.5958C17.4101 18.3363 17.4139 18.0668 17.4791 17.809C17.913 16.539 18.2372 15.2342 18.4481 13.9089C18.4737 13.7005 18.4544 13.489 18.3914 13.2887C18.3283 13.0884 18.2231 12.9038 18.0828 12.7476C17.9424 12.5913 17.7702 12.4669 17.5778 12.3828C17.3853 12.2987 17.1772 12.2569 16.9672 12.26C15.7922 12.26 14.8491 13.4749 14.8491 15.1029C14.8419 15.7002 14.9615 16.2923 15.2001 16.84L13.7881 22.823C13.5395 24.202 13.5284 25.6132 13.7551 26.996C13.7599 27.0242 13.7727 27.0504 13.7922 27.0713C13.8117 27.0922 13.8371 27.1069 13.8649 27.1136C13.8927 27.1204 13.9217 27.1187 13.9486 27.109C13.9755 27.0993 13.999 27.0819 14.0161 27.059C14.8832 25.9869 15.5541 24.7703 15.9981 23.465C16.1331 22.976 16.7711 20.447 16.7711 20.447C17.0682 20.8811 17.4693 21.2337 17.9379 21.4727C18.4064 21.7116 18.9274 21.8293 19.4531 21.8149C22.9831 21.8149 25.3781 18.5969 25.3781 14.2899C25.3781 11.0329 22.6201 8 18.4271 8C13.2101 8 10.5791 11.74 10.5791 14.859C10.5771 16.76 11.2921 18.4379 12.8261 19.0599Z" fill="white"/>
</g>
</svg>
