<svg width="71" height="71" viewBox="0 0 71 71" fill="none" xmlns="http://www.w3.org/2000/svg">
<g id="Group 427322511">
<path id="Vector" d="M71.0056 35.5028C71.0056 15.8952 55.1105 0 35.5028 0C15.8952 0 0 15.8952 0 35.5028C0 55.1105 15.8952 71.0056 35.5028 71.0056C55.1105 71.0056 71.0056 55.1105 71.0056 35.5028Z" fill="#F0FAF9"/>
<path id="Vector_2" d="M26 27.75C26 26.784 26.8592 26 27.9178 26H41.6164C42.6751 26 43.5342 26.784 43.5342 27.75V30.25C43.5342 30.7141 43.3322 31.1592 42.9725 31.4874C42.6129 31.8156 42.1251 32 41.6164 32H27.9178C27.4092 32 26.9214 31.8156 26.5617 31.4874C26.2021 31.1592 26 30.7141 26 30.25V27.75ZM27.9178 27.5C27.8451 27.5 27.7755 27.5263 27.7241 27.5732C27.6727 27.6201 27.6438 27.6837 27.6438 27.75V30.25C27.6438 30.388 27.7666 30.5 27.9178 30.5H41.6164C41.6891 30.5 41.7588 30.4737 41.8102 30.4268C41.8615 30.3799 41.8904 30.3163 41.8904 30.25V27.75C41.8904 27.6837 41.8615 27.6201 41.8102 27.5732C41.7588 27.5263 41.6891 27.5 41.6164 27.5H27.9178ZM28.4658 35.23C28.4658 34.264 29.3249 33.48 30.3836 33.48H44.0822C45.1408 33.48 46 34.264 46 35.23V37.23C46 37.6941 45.7979 38.1392 45.4383 38.4674C45.0786 38.7956 44.5908 38.98 44.0822 38.98H30.3836C29.8749 38.98 29.3871 38.7956 29.0275 38.4674C28.6678 38.1392 28.4658 37.6941 28.4658 37.23V35.23ZM30.3836 34.98C30.3109 34.98 30.2412 35.0063 30.1898 35.0532C30.1385 35.1001 30.1096 35.1637 30.1096 35.23V37.23C30.1096 37.368 30.2323 37.48 30.3836 37.48H44.0822C44.1549 37.48 44.2245 37.4536 44.2759 37.4068C44.3273 37.3599 44.3562 37.2963 44.3562 37.23V35.23C44.3562 35.1637 44.3273 35.1001 44.2759 35.0532C44.2245 35.0063 44.1549 34.98 44.0822 34.98H30.3836ZM27.9178 40.73C27.4092 40.73 26.9214 40.9144 26.5617 41.2425C26.2021 41.5707 26 42.0159 26 42.48V44.25C26 45.216 26.8592 46 27.9178 46H41.6164C42.1251 46 42.6129 45.8156 42.9725 45.4874C43.3322 45.1592 43.5342 44.7141 43.5342 44.25V42.48C43.5342 42.0159 43.3322 41.5707 42.9725 41.2425C42.6129 40.9144 42.1251 40.73 41.6164 40.73H27.9178ZM27.6438 42.48C27.6438 42.4137 27.6727 42.3501 27.7241 42.3032C27.7755 42.2563 27.8451 42.23 27.9178 42.23H41.6164C41.6891 42.23 41.7588 42.2563 41.8102 42.3032C41.8615 42.3501 41.8904 42.4137 41.8904 42.48V44.25C41.8904 44.3163 41.8615 44.3799 41.8102 44.4268C41.7588 44.4737 41.6891 44.5 41.6164 44.5H27.9178C27.8451 44.5 27.7755 44.4737 27.7241 44.4268C27.6727 44.3799 27.6438 44.3163 27.6438 44.25V42.48Z" fill="#212121"/>
</g>
</svg>
