<svg width="71" height="71" viewBox="0 0 71 71" fill="none" xmlns="http://www.w3.org/2000/svg">
<g id="Group 427322512">
<path id="Vector" d="M71.0056 35.5028C71.0056 15.8952 55.1105 0 35.5028 0C15.8952 0 0 15.8952 0 35.5028C0 55.1105 15.8952 71.0056 35.5028 71.0056C55.1105 71.0056 71.0056 55.1105 71.0056 35.5028Z" fill="#F0FAF9"/>
<path id="Vector_2" d="M33.9487 26H38.0492C38.2441 26.0001 38.4317 26.0722 38.5741 26.202C38.7166 26.3317 38.8032 26.5093 38.8164 26.6989C38.8297 26.8885 38.7687 27.0759 38.6457 27.2233C38.5227 27.3707 38.3469 27.4671 38.1538 27.493L38.0492 27.5H36.7692V44.5H38.0462C38.232 44.5 38.4116 44.5656 38.5517 44.6848C38.6918 44.8039 38.7829 44.9684 38.8082 45.148L38.8154 45.25C38.8154 45.4312 38.7481 45.6063 38.6259 45.7429C38.5037 45.8795 38.3349 45.9684 38.1508 45.993L38.0462 46H33.9487C33.7538 45.9999 33.5662 45.9278 33.4238 45.798C33.2814 45.6683 33.1948 45.4907 33.1815 45.3011C33.1682 45.1115 33.2292 44.9241 33.3522 44.7767C33.4752 44.6293 33.651 44.5329 33.8441 44.507L33.9487 44.5H35.2308V27.5H33.9487C33.7628 27.5 33.5832 27.4344 33.4431 27.3152C33.3031 27.1961 33.2119 27.0316 33.1867 26.852L33.1795 26.75C33.1795 26.5688 33.2468 26.3937 33.369 26.2571C33.4912 26.1205 33.6599 26.0316 33.8441 26.007L33.9487 26ZM42.6626 28.997C43.5464 28.9978 44.3937 29.3405 45.0187 29.9498C45.6436 30.5591 45.9951 31.3853 45.9959 32.247L46 39.751C46.0006 40.5811 45.6753 41.3799 45.0909 41.9835C44.5066 42.5871 43.7074 42.9497 42.8574 42.997L42.6667 43.002H37.8V41.502H42.7262C43.1921 41.4872 43.6338 41.2961 43.9577 40.9693C44.2816 40.6424 44.4623 40.2055 44.4615 39.751L44.4585 32.246C44.4576 31.7818 44.268 31.3368 43.9311 31.0087C43.5943 30.6807 43.1377 30.4963 42.6615 30.496H37.8V28.996H42.6615L42.6626 28.997ZM34.2051 28.997V30.497H29.3333C28.8573 30.497 28.4008 30.6814 28.0642 31.0096C27.7276 31.3378 27.5385 31.7829 27.5385 32.247V39.751C27.5385 40.718 28.3426 41.501 29.3333 41.501H34.2V43.001H29.3333C28.4493 43.001 27.6014 42.6586 26.9763 42.0491C26.3512 41.4396 26 40.613 26 39.751V32.247C26 31.385 26.3512 30.5584 26.9763 29.9489C27.6014 29.3394 28.4493 28.997 29.3333 28.997H34.2051Z" fill="#212121"/>
</g>
</svg>
