<svg width="18" height="18" viewBox="0 0 18 18" fill="none" xmlns="http://www.w3.org/2000/svg">
<path id="Path 21952" d="M10.4948 17.6147L17.6309 9.89986C17.7472 9.78547 17.8401 9.64641 17.9037 9.49151C17.9672 9.3366 18 9.16922 18 9C18 8.83078 17.9672 8.6634 17.9037 8.5085C17.8401 8.35359 17.7472 8.21453 17.6309 8.10014L10.4948 0.385263C10.2825 0.162411 10.0034 0.0272526 9.70709 0.00369692C9.41074 -0.0198588 9.11617 0.0697062 8.87548 0.256549C8.73092 0.36055 8.61051 0.498692 8.52352 0.660364C8.43653 0.822035 8.38527 1.00293 8.37368 1.18916C8.36208 1.37538 8.39046 1.56198 8.45664 1.73461C8.52282 1.90724 8.62502 2.06131 8.75541 2.18498L13.913 7.714H1.19962C0.88146 7.714 0.576332 7.84949 0.35136 8.09066C0.126388 8.33183 0 8.65893 0 9C0 9.34107 0.126388 9.66817 0.35136 9.90934C0.576332 10.1505 0.88146 10.286 1.19962 10.286H13.913L8.75541 15.815C8.62502 15.9387 8.52282 16.0928 8.45664 16.2654C8.39046 16.438 8.36208 16.6246 8.37368 16.8108C8.38527 16.9971 8.43653 17.178 8.52352 17.3396C8.61051 17.5013 8.73092 17.6394 8.87548 17.7435C9.11617 17.9303 9.41074 18.0199 9.70709 17.9963C10.0034 17.9727 10.2825 17.8376 10.4948 17.6147Z" fill="white"/>
</svg>
