<svg width="16" height="15" viewBox="0 0 16 15" fill="none" xmlns="http://www.w3.org/2000/svg">
<path d="M15.1113 12.781C15.6296 13.2997 15.6296 14.1066 15.1113 14.6254C14.8522 14.8847 14.5355 15 14.19 15C13.8445 15 13.5278 14.8847 13.2687 14.6254L8 9.35159L2.73129 14.6254C2.47217 14.8847 2.15547 15 1.80998 15C1.46449 15 1.14779 14.8847 0.888676 14.6254C0.370441 14.1066 0.370441 13.2997 0.888676 12.781L6.15739 7.50721L0.888676 2.23343C0.370441 1.7147 0.370441 0.907781 0.888676 0.389049C1.40691 -0.129683 2.21305 -0.129683 2.73129 0.389049L8 5.66282L13.2687 0.389049C13.7869 -0.129683 14.5931 -0.129683 15.1113 0.389049C15.6296 0.907781 15.6296 1.7147 15.1113 2.23343L9.84261 7.50721L15.1113 12.781Z" fill="#C2C4CF"/>
</svg>
