<svg width="150" height="150" viewBox="0 0 150 150" fill="none" xmlns="http://www.w3.org/2000/svg">
<g id="Group 427322599">
<g id="Mask group">
<mask id="mask0_924_337" style="mask-type:alpha" maskUnits="userSpaceOnUse" x="0" y="0" width="150" height="150">
<path id="Rectangle 5626" d="M0 10C0 4.47715 4.47715 0 10 0H140C145.523 0 150 4.47715 150 10V140C150 145.523 145.523 150 140 150H10C4.47715 150 0 145.523 0 140V10Z" fill="#E7F5E6"/>
</mask>
<g mask="url(#mask0_924_337)">
<g id="Ellipse 668" filter="url(#filter0_f_924_337)">
<ellipse cx="121.131" cy="113.69" rx="49.1071" ry="70.2381" fill="#F5F8F6"/>
</g>
<g id="Ellipse 669" filter="url(#filter1_f_924_337)">
<ellipse cx="22.0238" cy="37.5001" rx="45.8333" ry="65.4762" fill="#42D88D"/>
</g>
<g id="Ellipse 666" filter="url(#filter2_f_924_337)">
<ellipse cx="100" cy="25.0001" rx="89.881" ry="128.571" fill="#ADDDC5"/>
</g>
<g id="Ellipse 667" filter="url(#filter3_f_924_337)">
<ellipse cx="33.4016" cy="163.29" rx="86.7326" ry="123.796" fill="#E4F5F0"/>
</g>
</g>
</g>
<g id="Group 427322579">
<g id="Group 427322432">
<path id="Ellipse 9" d="M76.1424 112.821C95.847 112.821 111.821 96.8475 111.821 77.1428C111.821 57.4382 95.847 41.4644 76.1424 41.4644C56.4377 41.4644 40.4639 57.4382 40.4639 77.1428C40.4639 96.8475 56.4377 112.821 76.1424 112.821Z" fill="#F0FAF9"/>
<path id="Ellipse 10" d="M76.1427 127.285C103.836 127.285 126.285 104.836 126.285 77.1427C126.285 49.4497 103.836 27 76.1427 27C48.4497 27 26 49.4497 26 77.1427C26 104.836 48.4497 127.285 76.1427 127.285Z" fill="url(#paint0_linear_924_337)"/>
<path id="Ellipse 11" d="M126.286 45.3214C130.546 45.3214 134 41.8676 134 37.6071C134 33.3466 130.546 29.8928 126.286 29.8928C122.025 29.8928 118.571 33.3466 118.571 37.6071C118.571 41.8676 122.025 45.3214 126.286 45.3214Z" fill="url(#paint1_linear_924_337)"/>
</g>
<g id="Group 427322575">
<path id="Vector" d="M62.9382 61.866C61.7251 61.866 60.5617 62.3415 59.7039 63.188C58.8461 64.0345 58.3643 65.1826 58.3643 66.3797V73.7772C59.1127 73.167 59.9549 72.6783 60.8591 72.3296V66.3797C60.8591 65.2471 61.7905 64.328 62.9382 64.328H87.055C88.2027 64.328 89.1341 65.2471 89.1341 66.3797V83.6138C89.1341 84.7464 88.2027 85.6655 87.055 85.6655H73.2918L75.7866 88.1276H87.055C87.6557 88.1276 88.2505 88.0108 88.8054 87.784C89.3603 87.5571 89.8646 87.2247 90.2893 86.8055C90.714 86.3864 91.0509 85.8888 91.2808 85.3412C91.5106 84.7935 91.6289 84.2066 91.6289 83.6138V66.3797C91.6289 65.1826 91.1471 64.0345 90.2893 63.188C89.4315 62.3415 88.2681 61.866 87.055 61.866H62.9382Z" fill="url(#paint2_linear_924_337)"/>
<path id="Vector_2" d="M69.2413 73.7403C70.0734 74.7795 70.4402 75.3693 71.0711 76.3226L83.3909 76.1756C83.7186 76.1756 84.033 76.0473 84.2648 75.819C84.4965 75.5906 84.6267 75.2809 84.6267 74.9579C84.6267 74.635 84.4965 74.3253 84.2648 74.0969C84.033 73.8686 83.7186 73.7403 83.3909 73.7403H69.2413ZM80.0953 81.0462L73.1971 80.9998C73.1971 80.1555 72.7719 79.7242 72.1636 78.6109H80.0953C80.4231 78.6109 80.7374 78.7392 80.9692 78.9676C81.2009 79.1959 81.3311 79.5056 81.3311 79.8286C81.3311 80.1515 81.2009 80.4612 80.9692 80.6896C80.7374 80.918 80.4231 81.0462 80.0953 81.0462ZM66.089 68.8696C65.7613 68.8696 65.4469 68.9979 65.2152 69.2263C64.9834 69.4546 64.8532 69.7643 64.8532 70.0873C64.8532 70.4102 64.9834 70.72 65.2152 70.9483C65.4469 71.1767 65.7613 71.305 66.089 71.305H76.7997C77.1275 71.305 77.4418 71.1767 77.6736 70.9483C77.9053 70.72 78.0355 70.4102 78.0355 70.0873C78.0355 69.7643 77.9053 69.4546 77.6736 69.2263C77.4418 68.9979 77.1275 68.8696 76.7997 68.8696H66.089Z" fill="url(#paint3_linear_924_337)"/>
</g>
<path id="Vector_3" d="M59.1168 76.495L61.7241 74.9897C61.8481 74.9181 61.9938 74.8952 62.132 74.9254C62.2702 74.9556 62.3905 75.0367 62.4685 75.1524C62.5466 75.2681 62.5766 75.4096 62.5525 75.5485C62.5284 75.6874 62.452 75.8132 62.3387 75.9006L62.2748 75.9434L61.4609 76.4133L67.7018 87.2229L68.5137 86.7542C68.6319 86.6859 68.7702 86.6617 68.903 86.6861C69.0359 86.7104 69.1542 86.7816 69.2362 86.8864L69.2782 86.9487C69.3447 87.0639 69.3662 87.2 69.3387 87.3317C69.3111 87.4634 69.2364 87.5818 69.1284 87.6651L69.0644 87.708L66.459 89.2122C66.3351 89.2837 66.1893 89.3067 66.0511 89.2765C65.9129 89.2462 65.7927 89.1651 65.7146 89.0494C65.6366 88.9338 65.6066 88.7922 65.6307 88.6533C65.6547 88.5144 65.7311 88.3886 65.8444 88.3012L65.9084 88.2584L66.7236 87.7877L60.4826 76.9781L59.6674 77.4488C59.5492 77.517 59.4109 77.5412 59.2781 77.5169C59.1453 77.4926 59.027 77.4214 58.945 77.3165L58.903 77.2543C58.8364 77.1391 58.815 77.003 58.8425 76.8713C58.8701 76.7396 58.9448 76.6211 59.0528 76.5379L59.1168 76.495ZM65.7578 75.2017C66.32 74.8778 66.9846 74.7846 67.6057 74.9426C68.2268 75.1006 68.7536 75.4969 69.0704 76.0445L71.8278 80.8145C72.1329 81.3421 72.2194 81.9694 72.0694 82.5678C71.9194 83.1661 71.5444 83.6901 71.0213 84.0322L70.9018 84.1054L67.8073 85.892L67.2566 84.9382L70.389 83.1298C70.6798 82.9493 70.8905 82.6657 70.9765 82.3389C71.0624 82.0122 71.0169 81.668 70.8496 81.3793L68.0925 76.6083C67.9215 76.3134 67.6376 76.1001 67.3029 76.0152C66.9683 75.9302 66.6103 75.9806 66.3074 76.1552L63.2162 77.94L62.6655 76.9862L65.7568 75.2014L65.7578 75.2017ZM60.38 78.3065L60.9307 79.2603L57.8329 81.0488C57.5302 81.2236 57.3076 81.5084 57.2141 81.8407C57.1205 82.1729 57.1637 82.5254 57.3341 82.8205L60.0889 87.592C60.4439 88.2069 61.2427 88.4095 61.8726 88.0458L64.9672 86.2592L65.5178 87.213L62.4233 88.9996C61.8612 89.3242 61.1964 89.4177 60.5751 89.2596C59.9539 89.1016 59.4271 88.7049 59.1107 88.1568L56.3559 83.3853C56.0394 82.8372 55.9593 82.1827 56.133 81.5656C56.3067 80.9486 56.7201 80.4196 57.2823 80.095L60.38 78.3065Z" fill="url(#paint4_linear_924_337)" stroke="url(#paint5_linear_924_337)"/>
</g>
</g>
<defs>
<filter id="filter0_f_924_337" x="-35.9766" y="-64.5476" width="314.214" height="356.476" filterUnits="userSpaceOnUse" color-interpolation-filters="sRGB">
<feFlood flood-opacity="0" result="BackgroundImageFix"/>
<feBlend mode="normal" in="SourceGraphic" in2="BackgroundImageFix" result="shape"/>
<feGaussianBlur stdDeviation="54" result="effect1_foregroundBlur_924_337"/>
</filter>
<filter id="filter1_f_924_337" x="-131.81" y="-135.976" width="307.667" height="346.952" filterUnits="userSpaceOnUse" color-interpolation-filters="sRGB">
<feFlood flood-opacity="0" result="BackgroundImageFix"/>
<feBlend mode="normal" in="SourceGraphic" in2="BackgroundImageFix" result="shape"/>
<feGaussianBlur stdDeviation="54" result="effect1_foregroundBlur_924_337"/>
</filter>
<filter id="filter2_f_924_337" x="-118.461" y="-232.151" width="436.921" height="514.302" filterUnits="userSpaceOnUse" color-interpolation-filters="sRGB">
<feFlood flood-opacity="0" result="BackgroundImageFix"/>
<feBlend mode="normal" in="SourceGraphic" in2="BackgroundImageFix" result="shape"/>
<feGaussianBlur stdDeviation="64.2899" result="effect1_foregroundBlur_924_337"/>
</filter>
<filter id="filter3_f_924_337" x="-181.911" y="-89.0863" width="430.624" height="504.752" filterUnits="userSpaceOnUse" color-interpolation-filters="sRGB">
<feFlood flood-opacity="0" result="BackgroundImageFix"/>
<feBlend mode="normal" in="SourceGraphic" in2="BackgroundImageFix" result="shape"/>
<feGaussianBlur stdDeviation="64.2899" result="effect1_foregroundBlur_924_337"/>
</filter>
<linearGradient id="paint0_linear_924_337" x1="76.1427" y1="27" x2="76.1427" y2="127.285" gradientUnits="userSpaceOnUse">
<stop stop-color="#F0FAF9"/>
<stop offset="1" stop-color="#F0FAF9" stop-opacity="0"/>
</linearGradient>
<linearGradient id="paint1_linear_924_337" x1="126.286" y1="29.8928" x2="126.286" y2="45.3214" gradientUnits="userSpaceOnUse">
<stop stop-color="#F0FAF9"/>
<stop offset="1" stop-color="#F0FAF9" stop-opacity="0"/>
</linearGradient>
<linearGradient id="paint2_linear_924_337" x1="61.9174" y1="81.5976" x2="78.8131" y2="82.1743" gradientUnits="userSpaceOnUse">
<stop stop-color="#212121"/>
<stop offset="1" stop-color="#05B88A"/>
</linearGradient>
<linearGradient id="paint3_linear_924_337" x1="59.6066" y1="85.9704" x2="73.8354" y2="86.4423" gradientUnits="userSpaceOnUse">
<stop stop-color="#212121"/>
<stop offset="1" stop-color="#05B88A"/>
</linearGradient>
<linearGradient id="paint4_linear_924_337" x1="58.7397" y1="85.6771" x2="77.4483" y2="74.622" gradientUnits="userSpaceOnUse">
<stop stop-color="#212121"/>
<stop offset="1" stop-color="#05B78A"/>
</linearGradient>
<linearGradient id="paint5_linear_924_337" x1="58.3145" y1="84.8267" x2="76.1727" y2="74.1968" gradientUnits="userSpaceOnUse">
<stop stop-color="#212121"/>
<stop offset="1" stop-color="#05B78A"/>
</linearGradient>
</defs>
</svg>
