<svg width="150" height="150" viewBox="0 0 150 150" fill="none" xmlns="http://www.w3.org/2000/svg">
<rect width="150" height="150" rx="10" fill="url(#paint0_linear_924_287)"/>
<mask id="mask0_924_287" style="mask-type:alpha" maskUnits="userSpaceOnUse" x="0" y="0" width="150" height="150">
<path d="M0 10C0 4.47715 4.47715 0 10 0H139.777C145.3 0 149.777 4.47715 149.777 10V140C149.777 145.523 145.3 150 139.777 150H9.99999C4.47714 150 0 145.523 0 140V10Z" fill="#E7F5E6"/>
</mask>
<g mask="url(#mask0_924_287)">
<g filter="url(#filter0_f_924_287)">
<ellipse cx="141.061" cy="142.151" rx="29.0275" ry="41.4934" fill="#37AC8E" fill-opacity="0.5"/>
</g>
<g filter="url(#filter1_f_924_287)">
<ellipse cx="5.02941" cy="13.4461" rx="29.0275" ry="41.4934" fill="#F0F9F2"/>
</g>
<g filter="url(#filter2_f_924_287)">
<ellipse cx="103.229" cy="20.2632" rx="86.6038" ry="123.796" fill="url(#paint1_linear_924_287)" fill-opacity="0.77"/>
</g>
<g filter="url(#filter3_f_924_287)">
<ellipse cx="33.3523" cy="163.29" rx="86.6038" ry="123.796" fill="#DAEDE4"/>
</g>
</g>
<path d="M76.1428 109.821C95.8475 109.821 111.821 93.8475 111.821 74.1428C111.821 54.4382 95.8475 38.4644 76.1428 38.4644C56.4382 38.4644 40.4644 54.4382 40.4644 74.1428C40.4644 93.8475 56.4382 109.821 76.1428 109.821Z" fill="#F0FAF9"/>
<path d="M76.1427 124.285C103.836 124.285 126.285 101.836 126.285 74.1427C126.285 46.4497 103.836 24 76.1427 24C48.4497 24 26 46.4497 26 74.1427C26 101.836 48.4497 124.285 76.1427 124.285Z" fill="url(#paint2_linear_924_287)"/>
<path d="M126.286 42.3214C130.546 42.3214 134 38.8676 134 34.6071C134 30.3466 130.546 26.8928 126.286 26.8928C122.025 26.8928 118.571 30.3466 118.571 34.6071C118.571 38.8676 122.025 42.3214 126.286 42.3214Z" fill="url(#paint3_linear_924_287)"/>
<path d="M72.232 72.2921C72.1077 72.0768 71.903 71.9197 71.6628 71.8554C71.4227 71.791 71.1668 71.8247 70.9515 71.949C70.7362 72.0733 70.5791 72.2781 70.5147 72.5182C70.4504 72.7584 70.4841 73.0142 70.6084 73.2296L72.4832 76.4769C72.7508 76.9406 73.1792 77.29 73.6872 77.459C74.1952 77.628 74.7475 77.6049 75.2396 77.3939L75.7053 80.7404C75.8017 81.4107 76.0378 82.0533 76.3983 82.6266C76.7589 83.1999 77.2359 83.691 77.7984 84.0681L87.0857 90.18C87.7457 90.6158 88.5261 90.6675 89.1333 90.3169C89.7406 89.9663 90.0849 89.2653 90.0403 88.4756L89.3903 77.3755C89.311 76.0358 88.6241 74.7336 87.5538 73.8997L84.8885 71.8231C85.3172 71.5024 85.6135 71.0357 85.7211 70.5112C85.8288 69.9868 85.7403 69.4411 85.4726 68.9775L83.5977 65.7302C83.4734 65.5148 83.2686 65.3577 83.0285 65.2934C82.7883 65.229 82.5325 65.2627 82.3172 65.387C82.1018 65.5113 81.9447 65.7161 81.8804 65.9562C81.816 66.1964 81.8497 66.4523 81.974 66.6676L83.8489 69.9149C83.8903 69.9867 83.9016 70.072 83.8801 70.152C83.8587 70.2321 83.8063 70.3003 83.7345 70.3418L74.5337 75.6538C74.462 75.6953 74.3767 75.7065 74.2966 75.6851C74.2166 75.6636 74.1483 75.6112 74.1069 75.5395L72.232 72.2921ZM83.1489 72.8447L86.4016 75.3788C87.0502 75.8848 87.4715 76.6894 87.517 77.4857L88.0497 86.5652L83.8825 79.3474C84.0889 78.99 84.1715 78.5745 84.1177 78.1653C84.0638 77.7561 83.8764 77.3761 83.5846 77.0843C83.2927 76.7924 82.9128 76.6051 82.5036 76.5512C82.0944 76.4973 81.6788 76.58 81.3214 76.7863C80.964 76.9927 80.6847 77.3112 80.5267 77.6925C80.3688 78.0738 80.3411 78.4966 80.4479 78.8952C80.5547 79.2939 80.7901 79.6462 81.1175 79.8974C81.4449 80.1487 81.8461 80.2848 82.2588 80.2848L86.426 87.5026L78.8282 82.5022C78.4887 82.2717 78.2009 81.973 77.983 81.6253C77.765 81.2775 77.6218 80.8882 77.5624 80.4822L76.9942 76.3982L83.1489 72.8447Z" fill="url(#paint4_linear_924_287)"/>
<path d="M69.6284 84.9546C67.2834 84.9546 66.3691 85.9564 65.6753 88.1802L65.5534 88.5882C65.2253 89.7208 65.0299 90.0581 64.6337 90.2165C64.1693 90.3989 63.861 90.3731 63.3733 90.1339L63.1098 89.991C63.0148 89.9376 62.9126 89.874 62.7943 89.7999L61.6056 89.0219C60.5013 88.3248 59.5081 87.8652 58.3015 87.5761C57.9613 87.5077 57.6067 87.5684 57.3122 87.7455C57.0176 87.9226 56.8059 88.2024 56.7215 88.5261C56.6371 88.8498 56.6865 89.1923 56.8594 89.4818C57.0323 89.7713 57.3153 89.9852 57.6489 90.0788C58.3752 90.2559 59.0683 90.5405 59.7035 90.9222L60.2377 91.2492L61.0983 91.8155C61.4329 92.0412 61.782 92.2464 62.1435 92.43C63.2962 92.998 64.4203 93.0927 65.6574 92.6022C66.9948 92.0754 67.5326 91.2596 68.0364 89.6399L68.3161 88.7069C68.6406 87.6914 68.8629 87.5365 69.6284 87.5365C70.1842 87.5365 70.7579 87.8033 71.5449 88.4367L71.8748 88.7121L73.526 90.2199C76.0503 92.4989 78.2034 93.6039 81.2852 93.6039C84.3079 93.6039 86.9218 93.1667 89.1162 92.282L83.8328 90.8964C83.0314 90.9807 82.1816 91.022 81.2852 91.022C79.1644 91.022 77.6423 90.3077 75.7509 88.6777L75.2883 88.2663L74.3345 87.3867C73.9114 86.996 73.5923 86.7154 73.2732 86.4572C72.0469 85.471 70.9336 84.9546 69.6284 84.9546Z" fill="url(#paint5_linear_924_287)"/>
<path d="M68.704 56.3956L68.8362 56.305C69.0821 56.163 69.3707 56.1141 69.6486 56.1675C69.9266 56.2208 70.175 56.3727 70.348 56.5951L70.4367 56.7269L71.0196 57.7365L75.7689 54.9945C76.5786 54.527 77.5394 54.3978 78.4399 54.6352C79.3404 54.8726 80.1068 55.4572 80.5706 56.2605L84.0717 62.3246C84.5354 63.1278 84.6585 64.0839 84.4139 64.9824C84.1692 65.881 83.5769 66.6484 82.7672 67.1159L71.2332 73.775C70.4235 74.2425 69.4627 74.3718 68.5622 74.1344C67.6617 73.897 66.8953 73.3123 66.4315 72.5091L62.9305 66.445C62.4667 65.6417 62.3436 64.6857 62.5882 63.7871C62.8329 62.8886 63.4252 62.1211 64.2349 61.6536L68.9842 58.9116L68.4021 57.9034C68.2613 57.6595 68.2143 57.3723 68.2697 57.0952C68.3252 56.818 68.4795 56.5695 68.704 56.3956ZM76.9346 57.0136L65.4007 63.6727C65.1308 63.8286 64.9333 64.0844 64.8518 64.3839C64.7702 64.6834 64.8113 65.0021 64.9659 65.2699L68.4669 71.3339C68.7887 71.8912 69.5057 72.0803 70.0675 71.7559L81.6014 65.0968C81.8713 64.941 82.0688 64.6852 82.1503 64.3856C82.2319 64.0861 82.1908 63.7674 82.0363 63.4997L78.5352 57.4356C78.3806 57.1679 78.1251 56.973 77.8249 56.8938C77.5248 56.8147 77.2045 56.8578 76.9346 57.0136ZM69.2803 64.125C69.7301 63.8653 70.2639 63.7935 70.7642 63.9254C71.2645 64.0573 71.6902 64.3821 71.9479 64.8283C72.2055 65.2746 72.2739 65.8057 72.138 66.3049C72.0021 66.8041 71.673 67.2305 71.2232 67.4902C70.7733 67.7499 70.2395 67.8217 69.7393 67.6898C69.239 67.5579 68.8132 67.2331 68.5556 66.7869C68.2979 66.3406 68.2295 65.8095 68.3654 65.3103C68.5014 64.8111 68.8304 64.3847 69.2803 64.125ZM75.3756 60.6059C75.5986 60.4686 75.8467 60.3771 76.1052 60.3368C76.3636 60.2964 76.6272 60.3081 76.8804 60.371C77.1335 60.4339 77.3711 60.5469 77.579 60.7031C77.7869 60.8594 77.9609 61.0558 78.0908 61.2808C78.2207 61.5058 78.3038 61.7547 78.3352 62.0129C78.3665 62.2711 78.3456 62.5333 78.2735 62.784C78.2014 63.0347 78.0797 63.2688 77.9155 63.4724C77.7514 63.6761 77.5481 63.8452 77.3177 63.9697C76.8692 64.2121 76.3447 64.2715 75.8556 64.1351C75.3665 63.9987 74.9514 63.6774 74.6985 63.2394C74.4456 62.8014 74.3749 62.2812 74.5013 61.7894C74.6277 61.2977 74.9414 60.8731 75.3756 60.6059Z" fill="url(#paint6_linear_924_287)"/>
<defs>
<filter id="filter0_f_924_287" x="4.0332" y="-7.34229" width="274.055" height="298.987" filterUnits="userSpaceOnUse" color-interpolation-filters="sRGB">
<feFlood flood-opacity="0" result="BackgroundImageFix"/>
<feBlend mode="normal" in="SourceGraphic" in2="BackgroundImageFix" result="shape"/>
<feGaussianBlur stdDeviation="54" result="effect1_foregroundBlur_924_287"/>
</filter>
<filter id="filter1_f_924_287" x="-131.998" y="-136.047" width="274.055" height="298.987" filterUnits="userSpaceOnUse" color-interpolation-filters="sRGB">
<feFlood flood-opacity="0" result="BackgroundImageFix"/>
<feBlend mode="normal" in="SourceGraphic" in2="BackgroundImageFix" result="shape"/>
<feGaussianBlur stdDeviation="54" result="effect1_foregroundBlur_924_287"/>
</filter>
<filter id="filter2_f_924_287" x="-111.954" y="-232.113" width="430.367" height="504.752" filterUnits="userSpaceOnUse" color-interpolation-filters="sRGB">
<feFlood flood-opacity="0" result="BackgroundImageFix"/>
<feBlend mode="normal" in="SourceGraphic" in2="BackgroundImageFix" result="shape"/>
<feGaussianBlur stdDeviation="64.2899" result="effect1_foregroundBlur_924_287"/>
</filter>
<filter id="filter3_f_924_287" x="-181.831" y="-89.0863" width="430.367" height="504.752" filterUnits="userSpaceOnUse" color-interpolation-filters="sRGB">
<feFlood flood-opacity="0" result="BackgroundImageFix"/>
<feBlend mode="normal" in="SourceGraphic" in2="BackgroundImageFix" result="shape"/>
<feGaussianBlur stdDeviation="64.2899" result="effect1_foregroundBlur_924_287"/>
</filter>
<linearGradient id="paint0_linear_924_287" x1="120.214" y1="150" x2="-114.214" y2="-115.286" gradientUnits="userSpaceOnUse">
<stop stop-color="#F0FAF9"/>
<stop offset="1" stop-color="#ADDDC5"/>
</linearGradient>
<linearGradient id="paint1_linear_924_287" x1="103.229" y1="-103.533" x2="103.229" y2="144.059" gradientUnits="userSpaceOnUse">
<stop stop-color="#28C777"/>
<stop offset="1" stop-color="#42D88D" stop-opacity="0"/>
</linearGradient>
<linearGradient id="paint2_linear_924_287" x1="76.1427" y1="24" x2="76.1427" y2="124.285" gradientUnits="userSpaceOnUse">
<stop stop-color="#F0FAF9"/>
<stop offset="1" stop-color="#F0FAF9" stop-opacity="0"/>
</linearGradient>
<linearGradient id="paint3_linear_924_287" x1="126.286" y1="26.8928" x2="126.286" y2="42.3214" gradientUnits="userSpaceOnUse">
<stop stop-color="#F0FAF9"/>
<stop offset="1" stop-color="#F0FAF9" stop-opacity="0"/>
</linearGradient>
<linearGradient id="paint4_linear_924_287" x1="80.9182" y1="87.8826" x2="87.5833" y2="84.1768" gradientUnits="userSpaceOnUse">
<stop stop-color="#212121"/>
<stop offset="1" stop-color="#05B88A"/>
</linearGradient>
<linearGradient id="paint5_linear_924_287" x1="85.6517" y1="91.4533" x2="69.3249" y2="93.1032" gradientUnits="userSpaceOnUse">
<stop stop-color="#212121"/>
<stop offset="1" stop-color="#05B88A"/>
</linearGradient>
<linearGradient id="paint6_linear_924_287" x1="68.0344" y1="70.9338" x2="77.1683" y2="66.062" gradientUnits="userSpaceOnUse">
<stop stop-color="#212121"/>
<stop offset="1" stop-color="#05B88A"/>
</linearGradient>
</defs>
</svg>
