<svg width="35" height="35" viewBox="0 0 35 35" fill="none" xmlns="http://www.w3.org/2000/svg">
<g id="Group 427322520">
<path id="Ellipse 846" d="M17.5 35C27.165 35 35 27.165 35 17.5C35 7.83502 27.165 0 17.5 0C7.83502 0 0 7.83502 0 17.5C0 27.165 7.83502 35 17.5 35Z" fill="#2A3342"/>
<g id="Group 10006">
<path id="Path 20956" d="M8.33889 9.92189C8.33011 9.66072 8.37936 9.40087 8.48311 9.16103C8.58687 8.92119 8.74251 8.70737 8.93886 8.53493C9.38339 8.18632 9.93254 7.99784 10.4975 8.00002C11.0624 8.0022 11.6101 8.19487 12.0519 8.54689C12.2458 8.71877 12.3998 8.93084 12.5034 9.16829C12.6071 9.40575 12.6577 9.66288 12.6519 9.92189C12.658 10.1855 12.6065 10.4474 12.5012 10.6892C12.3958 10.9309 12.2391 11.1469 12.0419 11.3219C11.6154 11.7016 11.0585 11.9016 10.4879 11.8799C9.92006 11.8997 9.3669 11.6974 8.94588 11.3159C8.75024 11.141 8.59472 10.9259 8.48995 10.6853C8.38518 10.4447 8.33364 10.1843 8.33889 9.92189ZM8.61489 26.7589V14.0299H12.3209V26.7579L8.61489 26.7589Z" fill="white"/>
<path id="Path 20955" d="M26.9875 26.7589H23.2935V19.6589C23.2935 17.6029 22.5532 16.5749 21.0725 16.5749C20.7358 16.5695 20.4022 16.6408 20.0971 16.7834C19.792 16.9259 19.5234 17.1361 19.3115 17.3979C18.8295 17.9889 18.5805 18.7359 18.6115 19.4979V26.7599H14.8945V14.0309H18.6115V16.0559H18.6575C19.0565 15.3241 19.6514 14.7179 20.3755 14.3053C21.0997 13.8927 21.9246 13.69 22.7575 13.7199C25.5808 13.7199 26.9926 15.4693 26.9926 18.9679L26.9875 26.7589Z" fill="white"/>
</g>
</g>
</svg>
