<svg width="36" height="37" viewBox="0 0 36 37" fill="none" xmlns="http://www.w3.org/2000/svg">
<rect width="36" height="36" rx="18" fill="url(#paint0_radial_1380_1599)"/>
<g filter="url(#filter0_d_1380_1599)">
<path d="M17.9573 6L7.42773 18.5683L10.8563 21.8571L14.2627 18.5683L17.9573 22.1087L21.6519 18.5683L24.977 22.2857L28.8563 18.5683L17.9573 6Z" fill="url(#paint1_linear_1380_1599)"/>
<path d="M17.9573 6L7.42773 18.5683L10.8563 21.8571L14.2627 18.5683L17.9573 22.1087L21.6519 18.5683L24.977 22.2857L28.8563 18.5683L17.9573 6Z" stroke="white" stroke-width="0.388636"/>
</g>
<path d="M18.0458 14.5723L15.1426 17.669L18.0458 20.5723L20.8581 17.669L18.0458 14.5723Z" fill="url(#paint2_linear_1380_1599)"/>
<path d="M18.0458 6.85791L15.1426 9.95468L18.0458 12.8579L20.8581 9.95468L18.0458 6.85791Z" fill="url(#paint3_linear_1380_1599)"/>
<path d="M21.4745 11.1436L18.5713 14.2403L21.4745 17.1436L24.2868 14.2403L21.4745 11.1436Z" fill="url(#paint4_linear_1380_1599)"/>
<path d="M14.6171 11.1436L11.7139 14.2403L14.6171 17.1436L17.4294 14.2403L14.6171 11.1436Z" fill="url(#paint5_linear_1380_1599)"/>
<path d="M24.9032 14.5723L22 17.669L24.9032 20.5723L27.7155 17.669L24.9032 14.5723Z" fill="url(#paint6_linear_1380_1599)"/>
<path d="M11.1884 14.5723L8.28516 17.669L11.1884 20.5723L14.0007 17.669L11.1884 14.5723Z" fill="url(#paint7_linear_1380_1599)"/>
<path d="M7 18.8573L18.1429 30.0001L28.8571 18.4287" stroke="url(#paint8_linear_1380_1599)" stroke-width="0.777273"/>
<g filter="url(#filter1_d_1380_1599)">
<path d="M18.0458 24L15.1426 27.0968L18.0458 30L20.8581 27.0968L18.0458 24Z" fill="#B7E8D0"/>
<path d="M18.0458 24L15.1426 27.0968L18.0458 30L20.8581 27.0968L18.0458 24Z" stroke="white" stroke-width="0.388636"/>
</g>
<defs>
<filter id="filter0_d_1380_1599" x="4.05302" y="5.70068" width="28.1801" height="23.0824" filterUnits="userSpaceOnUse" color-interpolation-filters="sRGB">
<feFlood flood-opacity="0" result="BackgroundImageFix"/>
<feColorMatrix in="SourceAlpha" type="matrix" values="0 0 0 0 0 0 0 0 0 0 0 0 0 0 0 0 0 0 127 0" result="hardAlpha"/>
<feOffset dy="3.10909"/>
<feGaussianBlur stdDeviation="1.55455"/>
<feComposite in2="hardAlpha" operator="out"/>
<feColorMatrix type="matrix" values="0 0 0 0 0 0 0 0 0 0 0 0 0 0 0 0 0 0 0.1 0"/>
<feBlend mode="normal" in2="BackgroundImageFix" result="effect1_dropShadow_1380_1599"/>
<feBlend mode="normal" in="SourceGraphic" in2="effect1_dropShadow_1380_1599" result="shape"/>
</filter>
<filter id="filter1_d_1380_1599" x="11.763" y="23.7134" width="12.4701" height="12.7817" filterUnits="userSpaceOnUse" color-interpolation-filters="sRGB">
<feFlood flood-opacity="0" result="BackgroundImageFix"/>
<feColorMatrix in="SourceAlpha" type="matrix" values="0 0 0 0 0 0 0 0 0 0 0 0 0 0 0 0 0 0 127 0" result="hardAlpha"/>
<feOffset dy="3.10909"/>
<feGaussianBlur stdDeviation="1.55455"/>
<feComposite in2="hardAlpha" operator="out"/>
<feColorMatrix type="matrix" values="0 0 0 0 0 0 0 0 0 0 0 0 0 0 0 0 0 0 0.1 0"/>
<feBlend mode="normal" in2="BackgroundImageFix" result="effect1_dropShadow_1380_1599"/>
<feBlend mode="normal" in="SourceGraphic" in2="effect1_dropShadow_1380_1599" result="shape"/>
</filter>
<radialGradient id="paint0_radial_1380_1599" cx="0" cy="0" r="1" gradientUnits="userSpaceOnUse" gradientTransform="translate(9.96486 4.33255) rotate(55.8855) scale(32.445)">
<stop stop-color="#6EEB79"/>
<stop offset="0.838135" stop-color="#42D88D"/>
</radialGradient>
<linearGradient id="paint1_linear_1380_1599" x1="18.9456" y1="10.4654" x2="18.1727" y2="22.2877" gradientUnits="userSpaceOnUse">
<stop stop-color="#FBFBFB"/>
<stop offset="1" stop-color="#EBFBF4"/>
</linearGradient>
<linearGradient id="paint2_linear_1380_1599" x1="18.0003" y1="14.5723" x2="18.0003" y2="20.5723" gradientUnits="userSpaceOnUse">
<stop stop-color="#B7E8D0"/>
<stop offset="0.750345" stop-color="#B7E8D0" stop-opacity="0"/>
</linearGradient>
<linearGradient id="paint3_linear_1380_1599" x1="18.0003" y1="6.85791" x2="17.714" y2="15.8579" gradientUnits="userSpaceOnUse">
<stop stop-color="#B7E8D0"/>
<stop offset="0.750345" stop-color="#B7E8D0" stop-opacity="0"/>
</linearGradient>
<linearGradient id="paint4_linear_1380_1599" x1="21.4291" y1="11.1436" x2="21.4291" y2="17.1436" gradientUnits="userSpaceOnUse">
<stop stop-color="#B7E8D0"/>
<stop offset="0.750345" stop-color="#B7E8D0" stop-opacity="0"/>
</linearGradient>
<linearGradient id="paint5_linear_1380_1599" x1="14.5716" y1="11.1436" x2="14.5716" y2="17.1436" gradientUnits="userSpaceOnUse">
<stop stop-color="#B7E8D0"/>
<stop offset="0.750345" stop-color="#B7E8D0" stop-opacity="0"/>
</linearGradient>
<linearGradient id="paint6_linear_1380_1599" x1="24.8578" y1="14.5723" x2="24.8578" y2="20.5723" gradientUnits="userSpaceOnUse">
<stop stop-color="#B7E8D0"/>
<stop offset="0.750345" stop-color="#B7E8D0" stop-opacity="0"/>
</linearGradient>
<linearGradient id="paint7_linear_1380_1599" x1="11.1429" y1="14.5723" x2="11.1429" y2="20.5723" gradientUnits="userSpaceOnUse">
<stop stop-color="#B7E8D0"/>
<stop offset="0.750345" stop-color="#B7E8D0" stop-opacity="0"/>
</linearGradient>
<linearGradient id="paint8_linear_1380_1599" x1="18.1429" y1="29.5716" x2="19" y2="18.0001" gradientUnits="userSpaceOnUse">
<stop stop-color="white"/>
<stop offset="1" stop-color="white" stop-opacity="0"/>
</linearGradient>
</defs>
</svg>