<svg width="13" height="14" viewBox="0 0 13 14" fill="none" xmlns="http://www.w3.org/2000/svg">
<path id="Path 21951" d="M12.8116 11.2523L12.772 1.71496C12.7784 1.56655 12.7539 1.41843 12.7 1.28C12.6462 1.14156 12.5641 1.01584 12.4591 0.91081C12.354 0.805776 12.2283 0.723722 12.0899 0.669858C11.9514 0.615992 11.8033 0.591489 11.6549 0.597905L2.1176 0.55824C1.83797 0.561229 1.56839 0.663022 1.35656 0.845612C1.14473 1.0282 1.0043 1.27982 0.9601 1.55596C0.928448 1.71671 0.934066 1.88258 0.976523 2.04082C1.01898 2.19905 1.09715 2.34544 1.20502 2.46875C1.31289 2.59205 1.44759 2.68898 1.59878 2.75209C1.74997 2.8152 1.91361 2.84281 2.07714 2.8328L8.94113 2.83235L0.480782 11.2927C0.269058 11.5044 0.1501 11.7916 0.15008 12.091C0.15006 12.3904 0.26898 12.6775 0.480675 12.8892C0.692371 13.1009 0.979502 13.2198 1.27891 13.2198C1.57831 13.2198 1.86546 13.1008 2.07718 12.8891L10.5375 4.42874L10.5371 11.2927C10.5271 11.4563 10.5547 11.6199 10.6178 11.7711C10.6809 11.9223 10.7778 12.057 10.9011 12.1649C11.0244 12.2727 11.1708 12.3509 11.3291 12.3934C11.4873 12.4358 11.6532 12.4414 11.8139 12.4098C12.0901 12.3656 12.3417 12.2251 12.5243 12.0133C12.7069 11.8015 12.8086 11.5319 12.8116 11.2523Z" fill="white"/>
</svg>
