<svg width="71" height="71" viewBox="0 0 71 71" fill="none" xmlns="http://www.w3.org/2000/svg">
<g id="Group 427322510">
<path id="Vector" d="M71.0056 35.5028C71.0056 15.8952 55.1105 0 35.5028 0C15.8952 0 0 15.8952 0 35.5028C0 55.1105 15.8952 71.0056 35.5028 71.0056C55.1105 71.0056 71.0056 55.1105 71.0056 35.5028Z" fill="#F0FAF9"/>
<path id="Vector_2" d="M26 27.7273C26 27.004 26.2873 26.3103 26.7988 25.7988C27.3103 25.2873 28.004 25 28.7273 25H39.0303C39.7536 25 40.4473 25.2873 40.9588 25.7988C41.4702 26.3103 41.7576 27.004 41.7576 27.7273V37.1212H46V41.0606C46 42.1054 45.585 43.1074 44.8462 43.8462C44.1074 44.585 43.1054 45 42.0606 45H29.9394C28.8946 45 27.8926 44.585 27.1538 43.8462C26.415 43.1074 26 42.1054 26 41.0606V27.7273ZM41.7576 38.9394V43.1818H42.0606C42.6232 43.1818 43.1627 42.9583 43.5605 42.5605C43.9583 42.1627 44.1818 41.6232 44.1818 41.0606V38.9394H41.7576ZM39.9394 43.1818V27.7273C39.9394 27.4862 39.8436 27.2549 39.6731 27.0844C39.5026 26.914 39.2714 26.8182 39.0303 26.8182H28.7273C28.4862 26.8182 28.2549 26.914 28.0844 27.0844C27.914 27.2549 27.8182 27.4862 27.8182 27.7273V41.0606C27.8182 42.2315 28.7685 43.1818 29.9394 43.1818H39.9394ZM29.6364 30.7576C29.6364 30.5165 29.7321 30.2852 29.9026 30.1148C30.0731 29.9443 30.3043 29.8485 30.5455 29.8485H37.2121C37.4532 29.8485 37.6845 29.9443 37.8549 30.1148C38.0254 30.2852 38.1212 30.5165 38.1212 30.7576C38.1212 30.9987 38.0254 31.2299 37.8549 31.4004C37.6845 31.5709 37.4532 31.6667 37.2121 31.6667H30.5455C30.3043 31.6667 30.0731 31.5709 29.9026 31.4004C29.7321 31.2299 29.6364 30.9987 29.6364 30.7576ZM29.6364 35C29.6364 34.7589 29.7321 34.5277 29.9026 34.3572C30.0731 34.1867 30.3043 34.0909 30.5455 34.0909H37.2121C37.4532 34.0909 37.6845 34.1867 37.8549 34.3572C38.0254 34.5277 38.1212 34.7589 38.1212 35C38.1212 35.2411 38.0254 35.4723 37.8549 35.6428C37.6845 35.8133 37.4532 35.9091 37.2121 35.9091H30.5455C30.3043 35.9091 30.0731 35.8133 29.9026 35.6428C29.7321 35.4723 29.6364 35.2411 29.6364 35ZM29.6364 39.2424C29.6364 39.0013 29.7321 38.7701 29.9026 38.5996C30.0731 38.4291 30.3043 38.3333 30.5455 38.3333H33.5758C33.8169 38.3333 34.0481 38.4291 34.2186 38.5996C34.3891 38.7701 34.4848 39.0013 34.4848 39.2424C34.4848 39.4835 34.3891 39.7148 34.2186 39.8853C34.0481 40.0557 33.8169 40.1515 33.5758 40.1515H30.5455C30.3043 40.1515 30.0731 40.0557 29.9026 39.8853C29.7321 39.7148 29.6364 39.4835 29.6364 39.2424Z" fill="#212121"/>
</g>
</svg>
