<svg xmlns="http://www.w3.org/2000/svg" width="31.112" height="30" viewBox="0 0 31.112 30"><g transform="translate(-897.888 -777)"><path d="M-2179.667-1886.889a8.915,8.915,0,0,1,8.889-8.889,8.916,8.916,0,0,1,8.889,8.889,8.916,8.916,0,0,1-8.889,8.889A8.915,8.915,0,0,1-2179.667-1886.889Zm7.778,4.445a1.05,1.05,0,0,0,1.111,1.111,1.05,1.05,0,0,0,1.111-1.111v-5l1.444,1.444a1.009,1.009,0,0,0,.778.333,1.009,1.009,0,0,0,.778-.333,1.074,1.074,0,0,0,0-1.555L-2170-1891a1.009,1.009,0,0,0-.777-.333,1.009,1.009,0,0,0-.778.333l-3.333,3.445a1.072,1.072,0,0,0,0,1.555,1.074,1.074,0,0,0,1.555,0l1.445-1.444Zm-20.445,2.111a1.07,1.07,0,0,1-.667-1v-21.111a5.5,5.5,0,0,1,5.556-5.556h17.667a5.5,5.5,0,0,1,5.555,5.556v6.777a11.23,11.23,0,0,0-6.333-2.222h-1.111c-.222,0-.445.111-.667.111h-.333a4.83,4.83,0,0,1-.556.111c-.111,0-.333.112-.444.112a1,1,0,0,0-.556.111.669.669,0,0,0-.444.111c-.111.111-.334.111-.445.222s-.333.111-.444.222-.334.111-.445.222c-.222.112-.333.223-.555.334-.111.111-.222.111-.333.222-.223.111-.334.333-.556.444-.111.111-.222.111-.333.223l-.778.777a6.4,6.4,0,0,0-.778.889c-.111.111-.111.222-.222.334-.111.222-.333.444-.445.666-.111.111-.111.223-.222.334l-.333.666c-.111.111-.222.223-.222.334-.112.222-.223.555-.334.777,0,.111-.111.223-.111.334-.111.333-.111.555-.222.889-.111.111-.111.111-.111.222a3.948,3.948,0,0,0-.222,1.111,9,9,0,0,0,0,2.444,24.99,24.99,0,0,0-9.334,5.223,2.059,2.059,0,0,1-.777.222A.669.669,0,0,1-2192.333-1880.333Zm7.111-14.334a1.05,1.05,0,0,0,1.111,1.111h3.334a1.05,1.05,0,0,0,1.111-1.111,1.05,1.05,0,0,0-1.111-1.111h-3.334A1.05,1.05,0,0,0-2185.222-1894.667Zm0-4.444a1.05,1.05,0,0,0,1.111,1.111h6.667a1.049,1.049,0,0,0,1.111-1.111,1.049,1.049,0,0,0-1.111-1.111h-6.667A1.05,1.05,0,0,0-2185.222-1899.111Z" transform="translate(3090.889 2685)" fill="#fff"/></g></svg>